<svg width="32" height="32" viewBox="0 0 32 32" fill="none" xmlns="http://www.w3.org/2000/svg">
    <path d="M23.3002 25.1984C21.3002 26.7984 18.7002 27.6984 16.0002 27.6984C9.5002 27.7984 4.2002 22.4984 4.2002 15.9984C4.2002 13.1984 5.2002 10.5984 6.8002 8.59844L4.7002 6.39844C2.5002 8.99844 1.2002 12.2984 1.2002 15.9984C1.2002 24.1984 7.8002 30.7984 16.0002 30.7984C19.6002 30.7984 22.9002 29.4984 25.5002 27.3984L23.3002 25.1984Z" fill="#54565A"/>
    <path d="M27.9002 30.0992H32.0002L27.6002 25.2992C29.6002 22.7992 30.8002 19.4992 30.8002 15.9992C30.8002 7.79922 24.2002 1.19922 16.0002 1.19922C11.5002 1.19922 7.4002 3.29922 4.7002 6.49922L6.9002 8.69922C9.0002 5.89922 12.3002 4.19922 16.0002 4.19922C22.5002 4.19922 27.8002 9.49922 27.8002 15.9992C27.8002 19.6992 26.1002 23.0992 23.3002 25.1992L25.3002 27.1992L25.4002 27.2992L27.9002 30.0992Z" fill="#009845"/>
</svg>