<svg width="267" height="48" viewBox="0 0 267 48" fill="none" xmlns="http://www.w3.org/2000/svg">
  <path
    d="M16.0013 35.919C9.41795 35.919 4.08114 30.5822 4.08114 23.9989C4.08114 21.2025 5.04589 18.6325 6.65828 16.5994L4.47941 14.3945C2.3079 16.9967 1 20.3447 1 23.9989C1 32.2839 7.71629 39.0001 16.0013 39.0001C19.5916 39.0001 22.8864 37.7378 25.4687 35.6341L23.2894 33.4288C21.2741 34.9887 18.7469 35.919 16.0013 35.919Z"
    fill="white" />
  <path
    d="M27.54 33.5502L27.7093 33.3778C29.769 30.8094 31.0024 27.5498 31.0024 24.0013C31.0024 15.7163 24.2861 9 16.0012 9C12.43 9 9.15123 10.2488 6.57546 12.3325C5.83282 12.9333 5.14818 13.6029 4.53234 14.3327C4.51443 14.3539 4.49708 14.3756 4.47931 14.3969L6.65818 16.6018C6.67701 16.578 6.69476 16.5534 6.71378 16.5298C7.31187 15.7872 7.99765 15.1185 8.75457 14.5379C10.7627 12.9975 13.2746 12.0811 16.0012 12.0811C22.5844 12.0811 27.9213 17.418 27.9213 24.0013C27.9213 26.7792 26.9699 29.3342 25.3767 31.3608C24.7992 32.0953 24.1381 32.7611 23.4064 33.342C23.368 33.3725 23.328 33.4011 23.2893 33.4312L25.4686 35.6364L28.0338 38.2323H32.1662L27.54 33.5502Z"
    fill="#009845" />
  <path d="M39.1935 9.65771H36.2064V38.2188H39.1935V9.65771Z" fill="white" />
  <path d="M47.2999 18.2769H44.3237V38.2231H47.2999V18.2769Z" fill="white" />
  <path
    d="M47.8513 12.0248C48.0314 10.9156 47.2781 9.87047 46.1689 9.69045C45.0597 9.51043 44.0145 10.2637 43.8345 11.3729C43.6545 12.4821 44.4077 13.5273 45.517 13.7073C46.6262 13.8873 47.6713 13.134 47.8513 12.0248Z"
    fill="white" />
  <path d="M25.5677 35.515L25.5908 35.5381L25.5677 35.515Z" fill="white" />
  <path opacity="0.5" d="M25.5677 35.515L25.5908 35.5381L25.5677 35.515Z" fill="white" />
  <path d="M25.546 35.4912L23.4139 33.3375L25.4594 35.3938L25.546 35.4912Z" fill="white" />
  <path opacity="0.5" d="M25.546 35.4912L23.4139 33.3375L25.4594 35.3938L25.546 35.4912Z" fill="white" />
  <path
    d="M68.1985 18.2618H64.0534L55.4601 25.7944L55.4493 9.65771H52.4731V38.2188H55.4493V29.0087L64.2698 38.2188H68.4041L57.8844 27.5477L68.1985 18.2618Z"
    fill="white" />
  <path
    d="M72.5059 36.8108V38.2286H72.257V37.2653L71.8349 38.2286H71.705L71.2721 37.2653V38.2286H71.034V36.8108H71.3262L71.77 37.8498L72.2029 36.8108H72.5059Z"
    fill="white" />
  <path d="M70.785 36.8108V37.0272H70.3521V38.2286H70.1032V37.0272H69.6703V36.8108H70.785Z" fill="white" />
  <path
    d="M93.0767 38H84.767V9.63636H93.5753C96.2805 9.63636 98.5934 10.1996 100.514 11.326C102.444 12.4524 103.921 14.0682 104.946 16.1733C105.971 18.2784 106.483 20.8036 106.483 23.7489C106.483 26.7219 105.957 29.2749 104.904 31.4077C103.861 33.5312 102.337 35.1609 100.334 36.2965C98.3395 37.4322 95.9205 38 93.0767 38ZM87.3569 35.6733H92.9244C95.3619 35.6733 97.4023 35.1932 99.0458 34.233C100.689 33.2727 101.922 31.9016 102.744 30.1197C103.565 28.3377 103.976 26.2141 103.976 23.7489C103.967 21.3022 103.561 19.1971 102.757 17.4336C101.963 15.6701 100.782 14.3175 99.212 13.3757C97.6516 12.4339 95.7219 11.9631 93.4229 11.9631H87.3569V35.6733ZM120.848 38.4432C118.863 38.4432 117.146 37.9815 115.696 37.0582C114.247 36.1257 113.125 34.8377 112.331 33.1942C111.546 31.5415 111.154 29.6396 111.154 27.4883C111.154 25.3462 111.546 23.4442 112.331 21.7823C113.125 20.1111 114.219 18.8047 115.613 17.8629C117.017 16.9119 118.637 16.4364 120.474 16.4364C121.628 16.4364 122.741 16.6488 123.812 17.0735C124.883 17.489 125.843 18.1307 126.693 18.9986C127.551 19.8572 128.23 20.9421 128.729 22.2532C129.227 23.555 129.476 25.0969 129.476 26.8789V28.0977H112.857V25.9233H126.956C126.956 24.5568 126.679 23.3288 126.125 22.2393C125.58 21.1406 124.818 20.2727 123.84 19.6357C122.87 18.9986 121.748 18.68 120.474 18.68C119.126 18.68 117.94 19.0401 116.915 19.7603C115.89 20.4805 115.087 21.4315 114.505 22.6133C113.933 23.7951 113.642 25.0877 113.633 26.4911V27.793C113.633 29.4826 113.924 30.9599 114.505 32.2248C115.096 33.4805 115.932 34.4545 117.012 35.147C118.092 35.8395 119.371 36.1857 120.848 36.1857C121.855 36.1857 122.736 36.0288 123.494 35.7148C124.26 35.4009 124.902 34.9808 125.419 34.4545C125.945 33.919 126.342 33.3327 126.61 32.6957L128.95 33.4574C128.627 34.353 128.096 35.1793 127.358 35.9364C126.628 36.6935 125.714 37.3029 124.615 37.7646C123.526 38.217 122.27 38.4432 120.848 38.4432ZM150.728 16.7273L142.959 38H140.328L132.558 16.7273H135.231L141.546 34.7454H141.74L148.055 16.7273H150.728ZM163.39 38.4432C161.405 38.4432 159.688 37.9815 158.238 37.0582C156.789 36.1257 155.667 34.8377 154.873 33.1942C154.088 31.5415 153.696 29.6396 153.696 27.4883C153.696 25.3462 154.088 23.4442 154.873 21.7823C155.667 20.1111 156.761 18.8047 158.155 17.8629C159.559 16.9119 161.179 16.4364 163.016 16.4364C164.17 16.4364 165.283 16.6488 166.354 17.0735C167.425 17.489 168.385 18.1307 169.235 18.9986C170.093 19.8572 170.772 20.9421 171.271 22.2532C171.769 23.555 172.018 25.0969 172.018 26.8789V28.0977H155.399V25.9233H169.498C169.498 24.5568 169.221 23.3288 168.667 22.2393C168.122 21.1406 167.36 20.2727 166.382 19.6357C165.412 18.9986 164.29 18.68 163.016 18.68C161.668 18.68 160.482 19.0401 159.457 19.7603C158.432 20.4805 157.629 21.4315 157.047 22.6133C156.475 23.7951 156.184 25.0877 156.175 26.4911V27.793C156.175 29.4826 156.466 30.9599 157.047 32.2248C157.638 33.4805 158.474 34.4545 159.554 35.147C160.634 35.8395 161.913 36.1857 163.39 36.1857C164.397 36.1857 165.278 36.0288 166.036 35.7148C166.802 35.4009 167.444 34.9808 167.961 34.4545C168.487 33.919 168.884 33.3327 169.152 32.6957L171.492 33.4574C171.169 34.353 170.638 35.1793 169.9 35.9364C169.17 36.6935 168.256 37.3029 167.157 37.7646C166.068 38.217 164.812 38.4432 163.39 38.4432ZM179.916 9.63636V38H177.451V9.63636H179.916ZM194.707 38.4432C192.87 38.4432 191.245 37.9769 189.832 37.0444C188.429 36.1119 187.33 34.8239 186.536 33.1804C185.742 31.5277 185.345 29.6211 185.345 27.4606C185.345 25.2816 185.742 23.3658 186.536 21.7131C187.33 20.0511 188.429 18.7585 189.832 17.8352C191.245 16.9027 192.87 16.4364 194.707 16.4364C196.545 16.4364 198.165 16.9027 199.568 17.8352C200.972 18.7678 202.071 20.0604 202.865 21.7131C203.668 23.3658 204.07 25.2816 204.07 27.4606C204.07 29.6211 203.672 31.5277 202.878 33.1804C202.084 34.8239 200.981 36.1119 199.568 37.0444C198.165 37.9769 196.545 38.4432 194.707 38.4432ZM194.707 36.1857C196.185 36.1857 197.436 35.7887 198.46 34.9947C199.485 34.2006 200.261 33.1435 200.787 31.8232C201.323 30.5028 201.59 29.0487 201.59 27.4606C201.59 25.8725 201.323 24.4137 200.787 23.0842C200.261 21.7546 199.485 20.6882 198.46 19.8849C197.436 19.0817 196.185 18.68 194.707 18.68C193.239 18.68 191.988 19.0817 190.954 19.8849C189.929 20.6882 189.149 21.7546 188.614 23.0842C188.087 24.4137 187.824 25.8725 187.824 27.4606C187.824 29.0487 188.087 30.5028 188.614 31.8232C189.149 33.1435 189.929 34.2006 190.954 34.9947C191.979 35.7887 193.23 36.1857 194.707 36.1857ZM209.481 45.9773V16.7273H211.877V20.7852H212.168C212.463 20.1481 212.87 19.4972 213.387 18.8324C213.904 18.1584 214.587 17.5906 215.436 17.1289C216.295 16.6673 217.375 16.4364 218.677 16.4364C220.431 16.4364 221.964 16.8981 223.275 17.8214C224.596 18.7354 225.62 20.0188 226.35 21.6715C227.088 23.315 227.458 25.2308 227.458 27.419C227.458 29.6165 227.088 31.5415 226.35 33.1942C225.62 34.8469 224.596 36.1349 223.275 37.0582C221.964 37.9815 220.441 38.4432 218.705 38.4432C217.422 38.4432 216.346 38.2124 215.478 37.7507C214.619 37.2891 213.922 36.7212 213.387 36.0472C212.86 35.364 212.454 34.6992 212.168 34.0529H211.946V45.9773H209.481ZM211.919 27.3775C211.919 29.0948 212.173 30.6183 212.68 31.9478C213.197 33.2681 213.936 34.3068 214.896 35.0639C215.866 35.8118 217.038 36.1857 218.414 36.1857C219.827 36.1857 221.018 35.7979 221.987 35.0224C222.966 34.2376 223.709 33.1804 224.217 31.8509C224.734 30.5213 224.993 29.0302 224.993 27.3775C224.993 25.7433 224.739 24.2706 224.231 22.9595C223.732 21.6484 222.994 20.6097 222.015 19.8434C221.036 19.0678 219.836 18.68 218.414 18.68C217.029 18.68 215.852 19.054 214.882 19.8018C213.913 20.5405 213.174 21.5653 212.667 22.8764C212.168 24.1783 211.919 25.6786 211.919 27.3775ZM241.466 38.4432C239.481 38.4432 237.764 37.9815 236.314 37.0582C234.865 36.1257 233.743 34.8377 232.949 33.1942C232.164 31.5415 231.772 29.6396 231.772 27.4883C231.772 25.3462 232.164 23.4442 232.949 21.7823C233.743 20.1111 234.837 18.8047 236.231 17.8629C237.635 16.9119 239.255 16.4364 241.093 16.4364C242.247 16.4364 243.359 16.6488 244.43 17.0735C245.501 17.489 246.461 18.1307 247.311 18.9986C248.17 19.8572 248.848 20.9421 249.347 22.2532C249.845 23.555 250.095 25.0969 250.095 26.8789V28.0977H233.475V25.9233H247.574C247.574 24.5568 247.297 23.3288 246.743 22.2393C246.198 21.1406 245.437 20.2727 244.458 19.6357C243.488 18.9986 242.367 18.68 241.093 18.68C239.744 18.68 238.558 19.0401 237.533 19.7603C236.508 20.4805 235.705 21.4315 235.123 22.6133C234.551 23.7951 234.26 25.0877 234.251 26.4911V27.793C234.251 29.4826 234.542 30.9599 235.123 32.2248C235.714 33.4805 236.55 34.4545 237.63 35.147C238.71 35.8395 239.989 36.1857 241.466 36.1857C242.473 36.1857 243.355 36.0288 244.112 35.7148C244.878 35.4009 245.52 34.9808 246.037 34.4545C246.563 33.919 246.96 33.3327 247.228 32.6957L249.568 33.4574C249.245 34.353 248.714 35.1793 247.976 35.9364C247.246 36.6935 246.332 37.3029 245.233 37.7646C244.144 38.217 242.888 38.4432 241.466 38.4432ZM255.527 38V16.7273H257.923V19.9957H258.103C258.528 18.9247 259.266 18.0614 260.319 17.4059C261.381 16.7411 262.581 16.4087 263.92 16.4087C264.123 16.4087 264.349 16.4134 264.598 16.4226C264.848 16.4318 265.055 16.4411 265.222 16.4503V18.957C265.111 18.9386 264.917 18.9109 264.64 18.8739C264.363 18.837 264.063 18.8185 263.74 18.8185C262.632 18.8185 261.644 19.054 260.776 19.5249C259.917 19.9865 259.239 20.6282 258.74 21.4499C258.242 22.2717 257.992 23.2088 257.992 24.2614V38H255.527Z"
    fill="white" />
</svg>
