<svg width="73" height="32" viewBox="0 0 73 32" fill="none" xmlns="http://www.w3.org/2000/svg">
    <path
        d="M16.0013 27.919C9.41795 27.919 4.08114 22.5822 4.08114 15.9989C4.08114 13.2025 5.04589 10.6325 6.65828 8.5994L4.47941 6.39453C2.3079 8.99672 1 12.3447 1 15.9989C1 24.2839 7.71629 31.0001 16.0013 31.0001C19.5916 31.0001 22.8864 29.7378 25.4687 27.6341L23.2894 25.4288C21.2741 26.9887 18.7469 27.919 16.0013 27.919Z"
        fill="white" />
    <path
        d="M27.5402 25.5502L27.7094 25.3778C29.7692 22.8094 31.0026 19.5498 31.0026 16.0013C31.0026 7.71629 24.2863 1 16.0013 1C12.4302 1 9.15142 2.24883 6.57565 4.33249C5.83301 4.93325 5.14837 5.60291 4.53252 6.33267C4.51462 6.35389 4.49727 6.37558 4.47949 6.39689L6.65836 8.60176C6.6772 8.57801 6.69494 8.55336 6.71396 8.52976C7.31205 7.78724 7.99783 7.11851 8.75476 6.53791C10.7629 4.99748 13.2748 4.08115 16.0013 4.08115C22.5846 4.08115 27.9214 9.41796 27.9214 16.0013C27.9214 18.7792 26.9701 21.3342 25.3769 23.3608C24.7994 24.0953 24.1383 24.7611 23.4065 25.342C23.3681 25.3725 23.3282 25.4011 23.2894 25.4312L25.4687 27.6364L28.034 30.2323H32.1664L27.5402 25.5502Z"
        fill="#009845" />
    <path d="M39.1936 1.65625H36.2065V30.2174H39.1936V1.65625Z" fill="white" />
    <path d="M47.3 10.2773H44.3237V30.2236H47.3V10.2773Z" fill="white" />
    <path
        d="M47.8511 4.02629C48.0311 2.91707 47.2779 1.87194 46.1686 1.69192C45.0594 1.5119 44.0143 2.26516 43.8343 3.37438C43.6542 4.48361 44.4075 5.52875 45.5167 5.70877C46.6259 5.88879 47.6711 5.13551 47.8511 4.02629Z"
        fill="white" />
    <path d="M25.5679 27.5156L25.591 27.5387L25.5679 27.5156Z" fill="white" />
    <path opacity="0.5" d="M25.5679 27.5156L25.591 27.5387L25.5679 27.5156Z" fill="white" />
    <path d="M25.5461 27.4897L23.4141 25.3359L25.4596 27.3923L25.5461 27.4897Z" fill="white" />
    <path opacity="0.5" d="M25.5461 27.4897L23.4141 25.3359L25.4596 27.3923L25.5461 27.4897Z" fill="white" />
    <path
        d="M68.1985 10.2603H64.0534L55.4602 17.7929L55.4494 1.65625H52.4731V30.2174H55.4494V21.0073L64.2699 30.2174H68.4042L57.8845 19.5462L68.1985 10.2603Z"
        fill="white" />
    <path
        d="M72.5061 28.8125V30.2303H72.2571V29.2671L71.8351 30.2303H71.7052L71.2723 29.2671V30.2303H71.0342V28.8125H71.3264L71.7701 29.8515L72.203 28.8125H72.5061Z"
        fill="white" />
    <path d="M70.7852 28.8125V29.029H70.3522V30.2303H70.1033V29.029H69.6704V28.8125H70.7852Z" fill="white" />
</svg>